# Blender v2.81 (sub 16) OBJ File: 'aera_low_poly.blend'
# www.blender.org
mtllib aera_low_poly.mtl
o Cube
v -1.325002 0.100000 1.000000
v -1.325002 -0.100000 1.000000
v -1.325002 0.100000 -1.000000
v -1.325002 -0.100000 -1.000000
v 1.325002 0.200000 1.000000
v 1.325002 -0.200000 1.000000
v 1.325002 0.200000 -1.000000
v 1.325002 -0.200000 -1.000000
v -1.325002 -0.100000 1.500000
v 1.325003 -0.200000 1.500000
v -1.325002 0.100000 1.500000
v 1.325003 0.200000 1.500000
v -1.325002 -0.200000 1.500000
v 1.325003 -0.200000 1.500000
v -1.325002 0.200000 1.500000
v 1.325003 0.200000 1.500000
v -1.325002 -0.200000 1.500000
v 1.325003 -0.200000 1.500000
v -1.325002 0.200000 1.500000
v 1.325003 0.200000 1.500000
v -1.325002 -0.200000 1.500000
v 1.325003 -0.200000 1.500000
v -1.325002 0.200000 1.500000
v 1.325003 0.200000 1.500000
v -1.325001 -0.200000 1.700001
v 1.325003 -0.200000 1.700000
v -1.325001 0.200000 1.700001
v 1.325003 0.200000 1.700000
v -1.325001 -0.100000 1.700001
v 1.325003 -0.200000 1.700000
v -1.325001 0.100000 1.700001
v 1.325003 0.200000 1.700000
v -1.788822 -0.050000 4.200000
v -0.901150 -0.100000 4.200000
v -1.788822 0.050000 4.200000
v -0.901150 0.100000 4.200000
v 1.325002 -0.200000 -1.500000
v 1.325002 0.200000 -1.500000
v -1.325003 0.100000 -1.500000
v -1.325003 -0.100000 -1.500000
v 1.325001 -0.200000 -1.700001
v 1.325001 0.200000 -1.700001
v -1.325003 0.100000 -1.700000
v -1.325003 -0.100000 -1.700000
v -0.901152 -0.100000 -4.199999
v -0.901152 0.100000 -4.199999
v -1.788824 0.050000 -4.199999
v -1.788824 -0.050000 -4.199999
v -1.325002 0.200000 1.500000
v -1.325002 -0.200000 1.500000
v -1.325001 0.200000 1.700001
v -1.325001 -0.200000 1.700001
v -1.325003 0.200000 -1.500000
v -1.325003 -0.200000 -1.500000
v -1.325003 0.200000 -1.700000
v -1.325003 -0.200000 -1.700000
v -1.825002 0.200000 1.500001
v -1.825002 -0.200000 1.500001
v -1.825002 0.200000 1.700001
v -1.825002 -0.200000 1.700001
v -1.825003 0.200000 -1.499999
v -1.825003 -0.200000 -1.499999
v -1.825003 0.200000 -1.699999
v -1.825003 -0.200000 -1.699999
v 1.325003 0.200000 1.500000
v 1.325003 -0.200000 1.500000
v 1.325003 0.200000 1.700000
v 1.325003 -0.200000 1.700000
v 1.325002 -0.200000 -1.500000
v 1.325002 0.200000 -1.500000
v 1.325001 -0.200000 -1.700001
v 1.325001 0.200000 -1.700001
v 1.325003 0.200000 1.500000
v 1.325003 -0.200000 1.500000
v 1.325003 0.200000 1.700000
v 1.325003 -0.200000 1.700000
v 1.325002 -0.200000 -1.500000
v 1.325002 0.200000 -1.500000
v 1.325001 -0.200000 -1.700001
v 1.325001 0.200000 -1.700001
v 1.704252 0.200000 1.499999
v 1.704252 -0.200000 1.499999
v 1.704253 0.200000 1.699999
v 1.704253 -0.200000 1.699999
v 1.704252 -0.200000 -1.500001
v 1.704252 0.200000 -1.500001
v 1.704251 -0.200000 -1.700001
v 1.704251 0.200000 -1.700001
v 1.810641 -0.200000 0.299999
v 1.810641 -0.200000 -0.300001
v 1.810641 0.200000 -0.300001
v 1.810641 0.200000 0.299999
v -1.325003 0.199276 -1.500000
v 1.325002 0.200000 -1.500000
v -1.325003 0.199276 -1.700000
v 1.325001 0.200000 -1.700001
v -1.325003 -0.100000 -1.500000
v -1.325003 -0.100000 -1.700000
v 1.325002 -0.200000 -1.500000
v -1.325003 -0.100000 -1.500000
v 1.325001 -0.200000 -1.700001
v -1.325003 -0.100000 -1.700000
v 1.325001 -0.200003 -1.500000
v -1.325003 -0.200672 -1.500000
v 1.325001 -0.200003 -1.700001
v -1.325003 -0.200672 -1.700000
vt 0.625000 0.500000
vt 0.875000 0.500000
vt 0.875000 0.750000
vt 0.625000 0.750000
vt 0.625000 0.000000
vt 0.375000 0.000000
vt 0.375000 0.000000
vt 0.625000 0.000000
vt 0.125000 0.500000
vt 0.125000 0.750000
vt 0.125000 0.750000
vt 0.125000 0.500000
vt 0.375000 0.500000
vt 0.375000 0.750000
vt 0.375000 0.500000
vt 0.625000 0.500000
vt 0.375000 0.500000
vt 0.625000 0.500000
vt 0.375000 0.250000
vt 0.625000 0.250000
vt 0.625000 0.250000
vt 0.375000 0.250000
vt 0.125000 0.500000
vt 0.875000 0.500000
vt 0.375000 0.250000
vt 0.625000 0.250000
vt 0.625000 0.250000
vt 0.375000 0.250000
vt 0.125000 0.500000
vt 0.875000 0.500000
vt 0.875000 0.500000
vt 0.625000 0.500000
vt 0.625000 0.500000
vt 0.875000 0.500000
vt 0.125000 0.500000
vt 0.375000 0.500000
vt 0.625000 0.250000
vt 0.375000 0.250000
vt 0.375000 0.250000
vt 0.625000 0.250000
vt 0.375000 0.500000
vt 0.625000 0.250000
vt 0.375000 0.250000
vt 0.125000 0.500000
vt 0.625000 0.250000
vt 0.375000 0.250000
vt 0.125000 0.500000
vt 0.375000 0.500000
vt 0.625000 0.500000
vt 0.875000 0.500000
vt 0.625000 0.500000
vt 0.625000 0.500000
vt 0.875000 0.500000
vt 0.625000 0.500000
vt 0.625000 0.500000
vt 0.875000 0.500000
vt 0.125000 0.500000
vt 0.375000 0.500000
vt 0.375000 0.250000
vt 0.625000 0.250000
vt 0.375000 0.500000
vt 0.125000 0.500000
vt 0.375000 0.000000
vt 0.625000 0.000000
vt 0.375000 0.750000
vt 0.125000 0.750000
vt 0.875000 0.750000
vt 0.625000 0.750000
vt 0.125000 0.750000
vt 0.375000 0.750000
vt 0.375000 0.750000
vt 0.125000 0.750000
vt 0.125000 0.750000
vt 0.375000 0.750000
vt 0.625000 0.750000
vt 0.375000 0.750000
vt 0.625000 0.750000
vt 0.625000 0.750000
vt 0.625000 0.750000
vt 0.625000 0.750000
vt 0.625000 1.000000
vt 0.375000 1.000000
vt 0.875000 0.750000
vt 0.875000 0.750000
vt 0.625000 0.000000
vt 0.375000 0.000000
vt 0.375000 0.000000
vt 0.625000 0.000000
vt 0.375000 0.750000
vt 0.625000 0.750000
vt 0.625000 0.750000
vt 0.625000 0.750000
vt 0.375000 0.750000
vt 0.375000 0.500000
vt 0.375000 0.500000
vt 0.625000 0.500000
vt 0.375000 0.500000
vt 0.375000 0.500000
vt 0.625000 0.500000
vt 0.375000 0.750000
vt 0.375000 0.000000
vt 0.625000 0.000000
vt 0.125000 0.750000
vt 0.125000 0.750000
vt 0.125000 0.750000
vt 0.125000 0.750000
vt 0.625000 0.250000
vt 0.375000 0.250000
vt 0.125000 0.500000
vt 0.125000 0.500000
vt 0.625000 0.000000
vt 0.375000 0.000000
vt 0.875000 0.750000
vt 0.875000 0.750000
vt 0.875000 0.500000
vt 0.875000 0.500000
vt 0.125000 0.500000
vt 0.125000 0.500000
vt 0.125000 0.500000
vt 0.125000 0.500000
vt 0.375000 0.000000
vt 0.625000 0.000000
vt 0.625000 0.000000
vt 0.375000 0.000000
vt 0.875000 0.500000
vt 0.875000 0.500000
vt 0.625000 0.250000
vt 0.375000 0.250000
vt 0.875000 0.750000
vt 0.875000 0.750000
vt 0.375000 0.250000
vt 0.625000 0.250000
vt 0.375000 0.250000
vt 0.625000 0.250000
vt 0.625000 0.250000
vt 0.375000 0.250000
vt 0.625000 0.000000
vt 0.375000 0.000000
vt 0.125000 0.750000
vt 0.125000 0.750000
vt 0.875000 0.500000
vt 0.875000 0.500000
vt 0.875000 0.750000
vt 0.875000 0.750000
vt 0.375000 0.000000
vt 0.625000 0.000000
vt 0.625000 0.250000
vt 0.375000 0.250000
vt 0.875000 0.500000
vt 0.875000 0.750000
vt 0.875000 0.750000
vt 0.875000 0.750000
vt 0.375000 0.750000
vt 0.375000 0.750000
vt 0.125000 0.750000
vt 0.125000 0.750000
vt 0.125000 0.750000
vt 0.375000 0.750000
vt 0.375000 0.750000
vt 0.375000 0.750000
vn -0.0377 0.9993 0.0000
vn 1.0000 0.0000 -0.0000
vn 0.0000 -1.0000 0.0000
vn -0.0377 -0.9993 0.0000
vn -1.0000 0.0000 0.0000
vn 0.0000 0.0000 1.0000
vn -0.0000 0.0000 -1.0000
vn 0.0000 1.0000 0.0000
vn -0.0424 0.9991 0.0072
vn -0.9832 0.0000 -0.1824
vn 0.7468 0.0000 0.6650
vn -0.0424 -0.9991 0.0072
vn -0.0424 -0.9991 -0.0072
vn -0.9832 0.0000 0.1824
vn -0.0424 0.9991 -0.0072
vn 0.7468 0.0000 -0.6650
vn 0.8216 0.0000 0.5700
vn 0.8216 0.0000 -0.5700
vn -0.0003 1.0000 0.0000
vn 0.0003 -1.0000 0.0000
usemtl Material
s off
f 1/1/1 5/2/1 7/3/1 3/4/1
f 7/5/2 8/6/2 37/7/2 38/8/2
f 6/9/3 8/10/3 90/11/3 89/12/3
f 6/9/4 2/13/4 4/14/4 8/10/4
f 2/13/5 1/1/5 3/4/5 4/14/5
f 1/1/5 2/13/5 9/15/5 11/16/5
f 11/16/6 9/15/6 13/17/6 15/18/6
f 6/19/2 5/20/2 12/21/2 10/22/2
f 2/13/4 6/9/4 10/23/4 9/15/4
f 5/2/1 1/1/1 11/16/1 12/24/1
f 14/25/6 16/26/6 20/27/6 18/28/6
f 10/22/6 12/21/6 16/26/6 14/25/6
f 9/15/7 10/23/7 14/29/7 13/17/7
f 12/24/7 11/16/7 15/18/7 16/30/7
f 20/31/6 19/32/6 23/33/6 24/34/6
f 13/17/6 14/29/6 18/35/6 17/36/6
f 16/30/6 15/18/6 19/32/6 20/31/6
f 15/18/6 13/17/6 17/36/6 19/32/6
f 28/37/6 26/38/6 68/39/6 67/40/6
f 19/32/6 17/36/6 21/41/6 23/33/6
f 18/28/6 20/27/6 24/42/6 22/43/6
f 17/36/6 18/35/6 22/44/6 21/41/6
f 26/38/6 28/37/6 32/45/6 30/46/6
f 21/41/3 22/44/3 26/47/3 25/48/3
f 24/34/8 23/33/8 27/49/8 28/50/8
f 27/49/6 23/33/6 49/51/6 51/52/6
f 32/53/9 31/54/9 35/55/9 36/56/9
f 25/48/6 26/47/6 30/57/6 29/58/6
f 28/50/6 27/49/6 31/54/6 32/53/6
f 27/49/5 25/48/5 29/58/5 31/54/5
f 34/59/6 36/60/6 35/55/6 33/61/6
f 31/54/10 29/58/10 33/61/10 35/55/10
f 30/46/11 32/45/11 36/60/11 34/59/11
f 29/58/12 30/57/12 34/62/12 33/61/12
f 38/8/6 37/7/6 69/63/6 70/64/6
f 8/10/4 4/14/4 40/65/4 37/66/4
f 3/4/1 7/3/1 38/67/1 39/68/1
f 4/14/5 3/4/5 39/68/5 40/65/5
f 41/69/13 44/70/13 48/71/13 45/72/13
f 44/70/6 41/69/6 101/73/6 102/74/6
f 43/75/6 44/70/6 56/76/6 55/77/6
f 43/75/5 39/68/5 93/78/5 95/79/5
f 48/71/7 47/80/7 46/81/7 45/82/7
f 44/70/14 43/75/14 47/80/14 48/71/14
f 43/75/15 42/83/15 46/84/15 47/80/15
f 42/85/16 41/86/16 45/87/16 46/88/16
f 55/77/7 56/76/7 64/89/7 63/90/7
f 53/91/8 55/77/8 63/90/8 61/92/8
f 44/70/2 40/65/2 54/93/2 56/76/2
f 40/65/6 39/68/6 53/91/6 54/93/6
f 25/48/6 27/49/6 51/52/6 52/94/6
f 39/68/2 43/75/2 55/77/2 53/91/2
f 21/41/6 25/48/6 52/94/6 50/95/6
f 23/33/6 21/41/6 50/95/6 49/51/6
f 57/96/5 58/97/5 60/98/5 59/99/5
f 62/100/5 61/92/5 63/90/5 64/89/5
f 51/52/8 49/51/8 57/96/8 59/99/8
f 52/94/6 51/52/6 59/99/6 60/98/6
f 56/76/3 54/93/3 62/100/3 64/89/3
f 54/93/6 53/91/6 61/92/6 62/100/6
f 50/95/3 52/94/3 60/98/3 58/97/3
f 49/51/7 50/95/7 58/97/7 57/96/7
f 70/64/6 69/63/6 77/101/6 78/102/6
f 69/103/6 71/104/6 79/105/6 77/106/6
f 22/43/6 24/42/6 65/107/6 66/108/6
f 26/47/6 22/44/6 66/109/6 68/110/6
f 37/66/6 41/69/6 71/104/6 69/103/6
f 41/86/6 42/85/6 72/111/6 71/112/6
f 42/83/6 38/67/6 70/113/6 72/114/6
f 24/34/6 28/50/6 67/115/6 65/116/6
f 76/117/3 74/118/3 82/119/3 84/120/3
f 79/121/7 80/122/7 88/123/7 87/124/7
f 65/116/6 67/115/6 75/125/6 73/126/6
f 66/108/6 65/107/6 73/127/6 74/128/6
f 72/114/6 70/113/6 78/129/6 80/130/6
f 71/112/6 72/111/6 80/122/6 79/121/6
f 68/110/6 66/109/6 74/118/6 76/117/6
f 67/40/6 68/39/6 76/131/6 75/132/6
f 82/133/2 81/134/2 83/135/2 84/136/2
f 86/137/2 85/138/2 87/124/2 88/123/2
f 75/132/6 76/131/6 84/136/6 83/135/6
f 77/106/3 79/105/3 87/139/3 85/140/3
f 78/102/6 77/101/6 85/138/6 86/137/6
f 73/126/8 75/125/8 83/141/8 81/142/8
f 74/128/7 73/127/7 81/134/7 82/133/7
f 80/130/8 78/129/8 86/143/8 88/144/8
f 90/145/2 91/146/2 92/147/2 89/148/2
f 7/3/8 5/2/8 92/149/8 91/150/8
f 5/20/17 6/19/17 89/148/17 92/147/17
f 8/6/18 7/5/18 91/146/18 90/145/18
f 93/78/19 94/151/19 96/152/19 95/79/19
f 39/68/6 38/67/6 94/151/6 93/78/6
f 38/67/6 42/83/6 96/152/6 94/151/6
f 42/83/7 43/75/7 95/79/7 96/152/7
f 40/65/6 44/70/6 98/153/6 97/154/6
f 101/73/2 99/155/2 103/156/2 105/157/2
f 37/66/6 40/65/6 100/158/6 99/155/6
f 40/65/6 44/70/6 102/74/6 100/158/6
f 41/69/6 37/66/6 99/155/6 101/73/6
f 103/156/20 104/159/20 106/160/20 105/157/20
f 99/155/6 100/158/6 104/159/6 103/156/6
f 100/158/5 102/74/5 106/160/5 104/159/5
f 102/74/7 101/73/7 105/157/7 106/160/7
